<svg width="262" height="80" viewBox="0 0 262 80" fill="none" xmlns="http://www.w3.org/2000/svg">
<g filter="url(#filter0_d_1_79)">
<path d="M11.3965 25.5517C151.124 -29.311 227.536 17.2987 255.767 57.2236C257.997 60.3781 257.877 63.9643 256.226 66.7499C254.579 69.5272 251.417 71.4998 247.585 71.4999H15.2656C9.46664 71.4999 4.76563 66.7989 4.76562 60.9999V35.2626C4.76566 30.9952 7.42616 27.1106 11.3965 25.5517ZM254.949 57.8017C227.033 18.3211 151.144 -28.2439 11.7617 26.4833C8.17259 27.8928 5.76566 31.4086 5.76562 35.2626V60.9999C5.76563 66.2466 10.0189 70.4999 15.2656 70.4999H247.585C251.063 70.4998 253.899 68.7137 255.366 66.2402C256.828 63.7746 256.939 60.6161 254.949 57.8017ZM210.082 36.8446C210.222 36.8452 210.366 36.8675 210.517 36.9111L210.504 40.4394L215.386 40.4579C215.45 40.6193 215.481 40.8183 215.48 41.0546C215.48 41.2586 215.447 41.4465 215.382 41.6181L210.499 41.5995L210.467 50.204C210.46 51.9013 211.236 52.7529 212.794 52.7587C213.385 52.7609 213.89 52.6506 214.31 52.4267C214.74 52.2027 215.214 51.8652 215.731 51.4159C216 51.4492 216.177 51.5797 216.262 51.8056C215.786 52.6522 215.085 53.358 214.159 53.9237C213.233 54.4896 212.217 54.7707 211.11 54.7665C208.511 54.7568 207.217 53.1785 207.229 50.0312L207.261 41.5878L205.278 41.58C205.236 41.3872 205.216 41.2638 205.216 41.2099C205.216 41.1991 205.237 41.075 205.281 40.8388C205.798 40.5829 206.191 40.3749 206.46 40.2148C206.74 40.044 207.09 39.8039 207.51 39.4941C207.941 39.1841 208.329 38.8199 208.674 38.4023C209.03 37.974 209.376 37.4761 209.711 36.9081C209.819 36.8656 209.942 36.8441 210.082 36.8446ZM196.955 39.5995C197.847 39.6029 198.62 39.7348 199.274 39.995C199.939 40.2446 200.454 40.5846 200.817 41.0155C201.192 41.4466 201.464 41.9203 201.634 42.4364C201.815 42.942 201.904 43.4853 201.901 44.0653C201.899 44.6023 201.806 45.155 201.621 45.7236L192.84 45.6913C192.794 46.3354 192.77 46.9044 192.769 47.3984C192.795 48.999 193.258 50.2846 194.156 51.2548C195.055 52.2142 196.262 52.6974 197.776 52.703C198.185 52.7046 198.566 52.6626 198.921 52.578C199.276 52.4827 199.566 52.376 199.792 52.2587C200.029 52.1414 200.272 51.9706 200.52 51.746C200.767 51.5216 200.945 51.3451 201.053 51.2167C201.171 51.0775 201.328 50.8732 201.522 50.6054C201.717 50.327 201.846 50.15 201.911 50.0751C202.169 50.1298 202.378 50.2493 202.538 50.4325C201.996 51.8699 201.159 52.9466 200.028 53.662C198.898 54.3667 197.672 54.7168 196.351 54.7118C195.695 54.7094 195.057 54.6204 194.435 54.4462C193.823 54.2828 193.227 54.0119 192.648 53.6337C192.07 53.2557 191.567 52.7922 191.14 52.2431C190.712 51.6829 190.371 50.9882 190.116 50.1601C189.862 49.3213 189.736 48.3972 189.739 47.3876C189.748 45.1212 190.448 43.2544 191.839 41.788C193.23 40.3216 194.936 39.592 196.955 39.5995ZM180.842 39.539C181.733 39.5423 182.507 39.6742 183.161 39.9345C183.826 40.184 184.341 40.524 184.704 40.955C185.078 41.386 185.351 41.8598 185.521 42.3759C185.701 42.8815 185.79 43.4247 185.788 44.0048C185.786 44.5418 185.693 45.0945 185.508 45.663L176.727 45.6308C176.681 46.2748 176.657 46.8438 176.655 47.3378C176.681 48.9384 177.144 50.2241 178.043 51.1943C178.942 52.1537 180.148 52.6368 181.663 52.6425C182.071 52.644 182.453 52.6021 182.808 52.5175C183.162 52.4222 183.453 52.3155 183.679 52.1982C183.915 52.0809 184.158 51.9101 184.406 51.6855C184.654 51.4611 184.832 51.2846 184.939 51.1562C185.058 51.017 185.215 50.8135 185.409 50.5458C185.603 50.2676 185.733 50.0907 185.798 50.0155C186.055 50.0702 186.264 50.1888 186.425 50.372C185.882 51.8094 185.046 52.886 183.915 53.6015C182.785 54.3061 181.558 54.6562 180.237 54.6513C179.582 54.6488 178.944 54.5598 178.321 54.3857C177.71 54.2222 177.114 53.9513 176.535 53.5732C175.957 53.1951 175.454 52.7317 175.026 52.1825C174.599 51.6223 174.258 50.9276 174.003 50.0995C173.748 49.2608 173.622 48.3367 173.626 47.3271C173.634 45.0606 174.334 43.1939 175.726 41.7275C177.117 40.261 178.822 39.5315 180.842 39.539ZM108.188 39.2665C109.992 39.2733 111.259 39.6379 111.986 40.3603C112.725 41.0827 113.091 42.2979 113.085 44.0058L113.06 50.6933C113.057 51.2947 113.276 51.5959 113.717 51.5976C114.071 51.5989 114.524 51.1707 115.075 50.3134C115.462 50.3471 115.724 50.5203 115.862 50.8319C115.787 50.9391 115.657 51.1324 115.474 51.4111C115.29 51.6896 115.155 51.8879 115.068 52.0058C114.982 52.1236 114.847 52.3056 114.664 52.5517C114.481 52.7872 114.33 52.9642 114.211 53.0819C114.103 53.1997 113.952 53.3386 113.758 53.4989C113.575 53.6593 113.403 53.7828 113.241 53.8681C113.091 53.9427 112.913 54.0066 112.709 54.0595C112.505 54.1232 112.3 54.155 112.096 54.1542C111.559 54.1522 111.114 53.9563 110.761 53.5683C110.419 53.1803 110.217 52.5838 110.155 51.7782C110.144 51.7896 109.976 51.9443 109.653 52.2431C109.33 52.5426 109.104 52.7465 108.975 52.8534C108.856 52.9497 108.624 53.1256 108.28 53.3818C107.946 53.6276 107.661 53.8045 107.424 53.9111C107.187 54.0176 106.891 54.1185 106.536 54.2138C106.181 54.3198 105.832 54.3723 105.488 54.371C104.941 54.3689 104.452 54.2915 104.023 54.1396C103.605 53.9876 103.278 53.8035 103.042 53.5878C102.807 53.3721 102.614 53.1244 102.465 52.8446C102.316 52.5541 102.215 52.2901 102.162 52.0536C102.12 51.8172 102.099 51.5809 102.1 51.3446C102.102 50.625 102.223 50.0185 102.461 49.5253C102.71 49.0321 103.163 48.5717 103.82 48.1444C104.488 47.7174 105.306 47.339 106.273 47.0097C107.241 46.6803 108.543 46.3092 110.177 45.8964L110.186 43.6571C110.19 42.5722 109.951 41.7595 109.47 41.2206C108.999 40.6818 108.36 40.4111 107.555 40.4081C106.835 40.4055 106.228 40.5487 105.732 40.8368C105.248 41.1143 104.952 41.4409 104.843 41.8163C105.895 41.9814 106.419 42.5577 106.415 43.5458C106.413 43.9969 106.251 44.3938 105.928 44.7362C105.604 45.0787 105.152 45.2491 104.572 45.247C104.089 45.2452 103.66 45.0773 103.285 44.7431C102.91 44.3979 102.724 43.9189 102.727 43.3066C102.731 42.125 103.272 41.1551 104.349 40.3964C105.436 39.6378 106.716 39.261 108.188 39.2665ZM39.0479 29.9677C40.863 30.039 42.7324 30.0777 44.6553 30.0849C46.5887 30.0921 48.4579 30.0674 50.2627 30.0097C50.305 30.1815 50.3264 30.2997 50.3262 30.3642C50.3259 30.4393 50.3034 30.5735 50.2598 30.7665C49.9375 30.7975 49.6797 30.8239 49.4863 30.8446C49.2929 30.8654 49.0236 30.9016 48.6797 30.954C48.3466 31.0065 48.0725 31.0701 47.8574 31.1444C47.6531 31.2081 47.4379 31.2937 47.2119 31.4003C46.986 31.5069 46.814 31.6352 46.6953 31.7851C46.5873 31.935 46.533 32.1064 46.5322 32.2997C46.4839 33.7282 46.4469 37.6544 46.4229 44.078C46.4114 47.1394 46.9135 49.3652 47.9287 50.7548C48.9548 52.1444 50.6983 52.8442 53.1582 52.8534C55.6393 52.8627 57.554 52.1177 58.9023 50.6191C60.2508 49.1095 60.9309 46.9472 60.9414 44.1327C60.9606 39.0088 60.9425 35.1574 60.8877 32.579C60.8696 31.6123 59.6845 31.0175 57.333 30.7939C57.291 30.5576 57.2703 30.4122 57.2705 30.3583C57.2708 30.2724 57.2925 30.1648 57.3359 30.0361C59.0437 30.1069 60.5693 30.1453 61.9121 30.1503C62.7715 30.1535 64.2166 30.1261 66.2471 30.0693C66.2896 30.1983 66.3109 30.3066 66.3105 30.3925C66.3099 30.5642 66.2875 30.7092 66.2441 30.8271C63.9123 31.0332 62.7175 31.6193 62.6602 32.5859C62.5431 35.1421 62.4754 38.9931 62.4561 44.1386C62.4502 45.7068 62.2409 47.108 61.8281 48.3417C61.4154 49.5646 60.8903 50.5453 60.2539 51.2841C59.6174 52.0229 58.8738 52.633 58.0234 53.1132C57.1837 53.5935 56.3708 53.9238 55.5859 54.1034C54.8013 54.283 54.0115 54.3711 53.2168 54.3681C52.1535 54.3641 51.1977 54.3009 50.3496 54.1796C49.5014 54.0583 48.6747 53.8565 47.8701 53.5741C47.0656 53.2811 46.3682 52.881 45.7793 52.3739C45.1906 51.8562 44.6719 51.226 44.2236 50.4833C43.7753 49.7405 43.4403 48.8316 43.2188 47.7568C42.9972 46.6818 42.8893 45.451 42.8945 44.0653L42.9043 41.4228C42.9178 37.8243 42.8705 34.7786 42.7617 32.2861C42.752 32.0067 42.6292 31.7694 42.3936 31.5751C42.1581 31.3702 41.8148 31.2135 41.3643 31.1044C40.9244 30.9954 40.5486 30.9181 40.2373 30.8739C39.9367 30.8191 39.5389 30.7693 39.0449 30.7245C39.0028 30.5315 38.9822 30.3974 38.9824 30.3222C38.9827 30.2577 39.0043 30.1393 39.0479 29.9677ZM86.8262 29.3407C87.1265 29.4708 87.3141 29.6168 87.3887 29.7782L87.3447 41.621C89.0156 40.0056 90.6995 39.2007 92.3965 39.2069C94.0507 39.2132 95.3972 39.8359 96.4346 41.0751C97.472 42.3036 97.9864 43.9658 97.9785 46.0605C97.9756 46.8446 97.8866 47.6178 97.7119 48.3798C97.5372 49.1309 97.2497 49.8707 96.8496 50.5995C96.4495 51.3178 95.9581 51.9503 95.376 52.496C94.7939 53.0415 94.0567 53.4848 93.1641 53.8251C92.2713 54.1548 91.2822 54.3175 90.1973 54.3134C89.1338 54.3094 88.0973 54.1287 87.0889 53.7704C86.0805 53.4122 85.1859 52.9032 84.4043 52.245C84.4298 51.1815 84.4504 48.5924 84.4658 44.4784C84.4722 42.7705 84.4753 40.445 84.4756 37.5019C84.4759 34.5585 84.477 32.748 84.4795 32.0712C83.8792 31.7146 82.8432 31.4908 81.3721 31.3993C81.3298 31.2275 81.3093 31.0986 81.3096 31.0126C81.3099 30.9374 81.3314 30.8132 81.375 30.6415C83.4274 30.4559 85.2445 30.0223 86.8262 29.3407ZM167.505 29.6435C167.794 29.7627 167.982 29.9088 168.067 30.081C168.022 42.2514 168.037 49.5346 168.114 51.9306C168.124 52.1562 168.188 52.3608 168.306 52.5439C168.434 52.716 168.573 52.8559 168.723 52.9638C168.873 53.061 169.077 53.1533 169.334 53.2402C169.592 53.3163 169.79 53.3715 169.93 53.4042C170.08 53.4263 170.279 53.4531 170.525 53.4862C170.589 53.6153 170.622 53.75 170.621 53.8896C170.621 54.0292 170.587 54.1476 170.522 54.2441C169.105 54.1743 167.73 54.1368 166.398 54.1318C165.088 54.1268 163.723 54.1537 162.305 54.2128C162.262 54.041 162.242 53.9227 162.242 53.8583C162.242 53.8045 162.264 53.6704 162.308 53.456C162.662 53.4143 162.947 53.3722 163.162 53.33C163.388 53.2771 163.668 53.1979 164.001 53.0917C164.345 52.9856 164.604 52.8362 164.776 52.6435C164.949 52.44 165.041 52.1981 165.053 51.9189C165.1 50.8554 165.131 48.476 165.145 44.7812C165.151 43.0733 165.154 40.7477 165.154 37.8046C165.155 34.8612 165.156 33.0507 165.158 32.3739C164.547 32.0172 163.517 31.7934 162.067 31.7021C162.014 31.5622 161.988 31.4325 161.988 31.3144C161.989 31.2071 162.016 31.0835 162.07 30.9443C164.112 30.7585 165.923 30.325 167.505 29.6435ZM138.031 30.371C139.836 30.4422 141.715 30.4818 143.67 30.4892L145.523 30.496C146.308 30.4882 147.661 30.4878 149.584 30.495C151.517 30.4915 153.166 30.487 154.53 30.4814C155.905 30.4758 157.27 30.4538 158.624 30.4159C158.707 31.1575 158.887 31.9315 159.163 32.7382C159.439 33.534 159.705 34.1904 159.961 34.7069C160.217 35.2128 160.553 35.8265 160.97 36.5478C160.883 36.7301 160.694 36.8741 160.403 36.9804C160.019 36.2487 159.554 35.5975 159.009 35.0263C158.463 34.4549 157.772 33.9152 156.937 33.4071C156.111 32.8992 155.076 32.4812 153.831 32.1542C152.597 31.8274 151.191 31.6074 149.612 31.4941L145.52 31.4784C145.362 36.1185 145.279 39.6259 145.271 41.9999L149.863 42.0165C150.132 42.0175 150.384 41.997 150.62 41.955C150.857 41.9022 151.078 41.8175 151.282 41.7001C151.497 41.5829 151.68 41.471 151.831 41.3642C151.993 41.2466 152.16 41.0745 152.333 40.8495C152.516 40.6141 152.662 40.4213 152.77 40.2714C152.877 40.1215 153.013 39.8858 153.175 39.5644C153.337 39.2321 153.462 38.9801 153.549 38.8085C153.635 38.637 153.765 38.3526 153.938 37.956C154.123 37.5592 154.258 37.2691 154.345 37.0868C154.72 37.2493 154.923 37.3846 154.955 37.4921C154.315 39.144 153.993 40.8242 153.986 42.5321C153.98 44.2293 154.291 45.9166 154.918 47.5946C154.842 47.7448 154.637 47.884 154.304 48.0116C153.654 46.4304 153.159 45.3704 152.817 44.8319C152.027 43.6367 151.041 43.0308 149.859 43.0155L145.267 42.9989C145.258 45.3085 145.306 48.2574 145.411 51.8456C145.421 52.1249 145.543 52.3672 145.778 52.5722C146.014 52.7664 146.352 52.9182 146.792 53.0273C147.243 53.1364 147.618 53.2185 147.919 53.2734C148.23 53.3175 148.633 53.3614 149.127 53.4062C149.169 53.6212 149.191 53.7665 149.19 53.8417C149.19 53.9277 149.167 54.0352 149.124 54.164C147.298 54.0927 145.429 54.053 143.518 54.0458C141.584 54.0386 139.714 54.0643 137.909 54.122C137.867 53.9929 137.846 53.8847 137.847 53.7987C137.847 53.7234 137.868 53.5785 137.912 53.3642C138.234 53.3332 138.493 53.3078 138.687 53.287C138.88 53.2663 139.144 53.2291 139.477 53.1767C139.82 53.1243 140.095 53.0665 140.299 53.0028C140.514 52.9285 140.734 52.8379 140.96 52.7314C141.186 52.6249 141.353 52.4965 141.461 52.3466C141.58 52.1967 141.64 52.0243 141.641 51.831C141.782 48.4694 141.859 45.0807 141.872 41.665C141.885 38.1846 141.842 35.1819 141.744 32.6571C141.734 32.3778 141.613 32.1404 141.377 31.9462C141.152 31.752 140.808 31.6003 140.347 31.4911C139.886 31.3821 139.515 31.3115 139.236 31.2782C138.957 31.2342 138.554 31.1835 138.028 31.1278C137.986 30.9348 137.965 30.8007 137.965 30.7255C137.965 30.6611 137.988 30.5427 138.031 30.371ZM129.86 39.3476C131.085 39.3522 131.948 39.6994 132.45 40.3886C132.963 41.078 133.228 42.1533 133.244 43.6142L133.374 51.8007C133.384 52.0799 133.464 52.3217 133.613 52.5263C133.774 52.7202 133.999 52.8719 134.288 52.9804C134.588 53.0889 134.835 53.1701 135.028 53.2245C135.221 53.2682 135.474 53.3122 135.785 53.3564C135.827 53.5714 135.849 53.7167 135.849 53.7919C135.848 53.8778 135.826 53.9856 135.782 54.1142C134.397 54.0445 133.119 54.0072 131.948 54.0028C130.81 53.9986 129.547 54.0256 128.161 54.0849C128.119 53.913 128.098 53.7841 128.099 53.6982C128.099 53.623 128.12 53.4996 128.164 53.328C128.444 53.2861 128.675 53.2434 128.857 53.2011C129.051 53.1481 129.266 53.0683 129.503 52.9618C129.75 52.8553 129.934 52.7055 130.053 52.5126C130.182 52.3092 130.247 52.0679 130.248 51.789L130.31 44.1347C130.317 42.1906 129.734 41.2162 128.563 41.2118C127.468 41.2079 125.929 41.9324 123.947 43.3857C123.936 46.5116 123.968 49.3053 124.045 51.7655C124.055 52.0448 124.135 52.2865 124.284 52.4911C124.445 52.6851 124.669 52.8367 124.959 52.9452C125.248 53.0536 125.49 53.1349 125.683 53.1894C125.876 53.233 126.128 53.2771 126.439 53.3212C126.503 53.4504 126.536 53.5849 126.535 53.7245C126.535 53.8319 126.502 53.9504 126.438 54.079C125.02 54.0093 123.645 53.9717 122.312 53.9667C121.002 53.9618 119.638 53.9886 118.22 54.0478C118.177 53.8759 118.156 53.7578 118.156 53.6933C118.156 53.6396 118.179 53.5054 118.223 53.2909C118.577 53.2493 118.867 53.2071 119.093 53.165C119.319 53.1121 119.598 53.0328 119.932 52.9267C120.265 52.8206 120.518 52.671 120.69 52.4784C120.863 52.275 120.955 52.0331 120.967 51.7538C121.014 50.6905 121.04 49.4012 121.046 47.8866C121.048 47.3817 121.046 46.5221 121.04 45.3085C121.034 44.0947 121.032 43.0311 121.035 42.1181C120.424 41.74 119.394 41.5161 117.944 41.4462C117.902 41.2742 117.881 41.1396 117.882 41.0429C117.882 40.9784 117.904 40.86 117.947 40.6884C120.032 40.4814 121.849 40.0478 123.398 39.3876C123.667 39.496 123.854 39.6372 123.961 39.8095L123.951 42.3544C124.996 41.4454 125.998 40.7189 126.956 40.1747C127.914 39.6197 128.883 39.3439 129.86 39.3476ZM78.2656 39.1542C78.9101 39.1566 79.4302 39.352 79.8262 39.7402C80.233 40.1177 80.4351 40.6396 80.4326 41.3056C80.4302 41.9393 80.2406 42.433 79.8633 42.7861C79.486 43.139 79.0126 43.3146 78.4434 43.3124C77.917 43.3104 77.4821 43.1418 77.1396 42.8075C76.8081 42.4626 76.6278 42.0106 76.5977 41.4521C76.1458 41.6437 75.6284 42.0716 75.0459 42.7353C74.4741 43.3991 74.1226 44.059 73.9912 44.7138C73.9822 47.1091 74.016 49.3972 74.0938 51.578C74.1034 51.8574 74.2049 52.0998 74.3975 52.3046C74.5901 52.4986 74.8745 52.6499 75.25 52.7587C75.6255 52.8675 75.9368 52.9492 76.1836 53.0038C76.4304 53.0477 76.7523 53.0922 77.1494 53.1366C77.2134 53.2658 77.2456 53.4003 77.2451 53.54C77.2447 53.6473 77.2113 53.765 77.1465 53.8935C75.5355 53.823 73.9403 53.7851 72.3613 53.7792C71.0509 53.7743 69.6866 53.8011 68.2686 53.8603C68.2263 53.6884 68.2048 53.5702 68.2051 53.5058C68.2053 53.4521 68.2277 53.318 68.2715 53.1034C68.6259 53.0618 68.9159 53.0196 69.1416 52.9775C69.3673 52.9246 69.6472 52.8453 69.9805 52.7392C70.3136 52.6331 70.5667 52.4835 70.7393 52.2909C70.9119 52.0875 71.0048 51.8456 71.0166 51.5663C71.0635 50.5032 71.09 49.2144 71.0957 47.7001C71.0976 47.1953 71.0951 46.3356 71.0889 45.122C71.0827 43.9081 71.0815 42.8437 71.085 41.9306C70.4741 41.5523 69.4431 41.3286 67.9932 41.2587C67.9509 41.0867 67.9303 40.952 67.9307 40.8554C67.931 40.7909 67.9526 40.6731 67.9961 40.5019C70.0807 40.2949 71.898 39.8612 73.4473 39.2011C73.7154 39.3095 73.903 39.4497 74.0098 39.622L74 42.3935C74.4003 41.643 74.9934 40.914 75.7803 40.2079C76.5778 39.5021 77.4064 39.151 78.2656 39.1542ZM90.8418 41.3124C90.1222 41.3098 89.4931 41.4414 88.9551 41.7079C88.4279 41.9637 87.8895 42.3537 87.3398 42.8778C87.3268 46.3583 87.3372 49.1736 87.3721 51.3222C88.1084 52.603 89.2396 53.246 90.7646 53.2519C91.0869 53.2531 91.4098 53.2008 91.7324 53.0946C92.0658 52.9885 92.4159 52.7857 92.7822 52.4862C93.1486 52.1868 93.467 51.8065 93.7373 51.3456C94.0183 50.8848 94.251 50.2627 94.4365 49.4794C94.6221 48.696 94.7169 47.8045 94.7207 46.8056C94.7246 45.7744 94.5936 44.8554 94.3281 44.0487C94.0626 43.2421 93.6299 42.5852 93.0303 42.078C92.4306 41.571 91.7011 41.3156 90.8418 41.3124ZM110.173 46.9277C109.184 47.1495 108.367 47.394 107.722 47.6601C107.076 47.9154 106.58 48.1975 106.235 48.5077C105.901 48.818 105.669 49.1401 105.539 49.4726C105.409 49.7943 105.343 50.17 105.342 50.5995C105.34 51.1364 105.494 51.5613 105.804 51.8739C106.125 52.1759 106.517 52.3282 106.979 52.33C108.053 52.334 109.113 51.6558 110.16 50.2958L110.173 46.9277ZM196.564 40.6454C195.823 40.6427 195.119 40.9674 194.45 41.62C193.792 42.2728 193.316 43.2648 193.021 44.5956L198.821 44.6181C198.93 44.2103 198.985 43.8554 198.986 43.5546C198.989 42.7168 198.799 42.0228 198.414 41.4736C198.029 40.9246 197.413 40.6486 196.564 40.6454ZM180.451 40.5849C179.71 40.5822 179.005 40.9069 178.337 41.5595C177.679 42.2122 177.203 43.2044 176.908 44.5351L182.709 44.5575C182.818 44.1497 182.873 43.7948 182.874 43.4941C182.877 42.6565 182.686 41.9631 182.302 41.414C181.917 40.8647 181.3 40.5881 180.451 40.5849Z" fill="#0000FF"/>
</g>
<defs>
<filter id="filter0_d_1_79" x="0.765625" y="0.500549" width="260.689" height="78.9994" filterUnits="userSpaceOnUse" color-interpolation-filters="sRGB">
<feFlood flood-opacity="0" result="BackgroundImageFix"/>
<feColorMatrix in="SourceAlpha" type="matrix" values="0 0 0 0 0 0 0 0 0 0 0 0 0 0 0 0 0 0 127 0" result="hardAlpha"/>
<feOffset dy="4"/>
<feGaussianBlur stdDeviation="2"/>
<feComposite in2="hardAlpha" operator="out"/>
<feColorMatrix type="matrix" values="0 0 0 0 0 0 0 0 0 0 0 0 0 0 0 0 0 0 0.25 0"/>
<feBlend mode="normal" in2="BackgroundImageFix" result="effect1_dropShadow_1_79"/>
<feBlend mode="normal" in="SourceGraphic" in2="effect1_dropShadow_1_79" result="shape"/>
</filter>
</defs>
</svg>
